
<svg width="640" height="480" xmlns="http://www.w3.org/2000/svg" xmlns:svg="http://www.w3.org/2000/svg">
 <!-- Created with SVG-edit - http://svg-edit.googlecode.com/ -->
 <g stroke="null">
  <title>Layer 1</title>
  <rect id="svg_1" height="264.00001" width="401.00001" y="58" x="120" stroke-width="5" fill="#e2841f" stroke-opacity="0" stroke="#000000"/>
  <path fill="#f7db04" stroke-width="5" stroke-dasharray="null" stroke-linejoin="null" stroke-linecap="null" stroke-opacity="0" d="m442.865,321.33835l16.8,-266.00001l67.2,0l-16.8,266.00001l-67.2,0z" id="svg_12" fill-opacity="0.4" stroke="#000000"/>
  <rect fill="#000000" stroke-width="7" stroke-dasharray="null" stroke-linejoin="null" stroke-linecap="null" x="45" y="210" width="1" height="0" id="svg_46" stroke="#f9f9f9"/>
  <polygon fill="#2b4f07" id="svg_2" stroke="null"/>
  <path fill="#f7db04" stroke-width="5" stroke-dasharray="null" stroke-linejoin="null" stroke-linecap="null" stroke-opacity="0" d="m210.53104,189.92873l1.40404,-1.40404l1.40427,1.40404l-1.40427,1.40404l-1.40404,-1.40404zm-1.58103,1.59017l1.40427,-1.40404l1.40404,1.40404l-1.40404,1.40427l-1.40427,-1.40427zm3.19192,0.02868l1.40427,-1.40381l1.40381,1.40381l-1.40381,1.40427l-1.40427,-1.40427zm-1.58057,1.5904l1.40381,-1.40404l1.40428,1.40404l-1.40428,1.40405l-1.40381,-1.40405z" id="svg_6" stroke="#000000"/>
  <path fill="#f7db04" stroke-width="5" stroke-dasharray="null" stroke-linejoin="null" stroke-linecap="null" stroke-opacity="0" d="m155.865,321.5786l29.2,-263.24023l116.79999,0l-29.2,263.24023l-116.79999,0z" fill-opacity="0.8" id="svg_14" stroke="#000000"/>
  <path fill="#f7db04" stroke-width="5" stroke-dasharray="null" stroke-linejoin="null" stroke-linecap="null" stroke-opacity="0" d="m225.86501,321.33835l22.2,-266l88.79999,0l-22.2,266l-88.79999,0z" fill-opacity="0.4" id="svg_15" stroke="#000000"/>
  <path fill="#f7db04" stroke-width="5" stroke-dasharray="null" stroke-linejoin="null" stroke-linecap="null" stroke-opacity="0" d="m308.86501,321.33835l22.2,-266l88.79999,0l-22.2,266l-88.79999,0z" fill-opacity="0.4" id="svg_17" stroke="#000000"/>
  <path fill="#f7db04" stroke-width="5" stroke-dasharray="null" stroke-linejoin="null" stroke-linecap="null" stroke-opacity="0" d="m476.86502,322.33835l10,-266l39.99998,0l-10,266l-39.99998,0z" fill-opacity="0.4" id="svg_18" stroke="#000000"/>
  <text fill="#f9f4f4" stroke-width="0" stroke-dasharray="null" stroke-linejoin="null" stroke-linecap="null" stroke-opacity="0" x="320.18753" y="278.07809" id="svg_72" font-size="24" font-family="Monospace" text-anchor="middle" xml:space="preserve" stroke="#000000">A2J: Record Expungment</text>
  <rect fill="#000000" stroke-width="7" stroke-dasharray="null" stroke-linejoin="null" stroke-linecap="null" x="256.48438" y="102.92188" width="132" height="132" id="svg_39" fill-opacity="0" stroke="#fcf9f9"/>
  <g id="svg_71">
  <rect stroke="#000000" transform="matrix(0.7581567380078986,-0.17326576421031245,0.18051604631939452,0.7277059811608709,45.419481918161694,90.20429530884708) " id="svg_48" height="6.3125" width="99.9375" y="128.75677" x="282.91069" stroke-opacity="0" stroke-linecap="null" stroke-linejoin="null" stroke-dasharray="null" fill="#f7f7f7"/>
  <path stroke="#000000" id="svg_57" d="m375.40625,151.22348l0,8.78657l0,0c0,4.85269 -7.49103,8.78657 -16.73169,8.78657c-9.24065,0 -16.73169,-3.93388 -16.73169,-8.78657l0,-8.78657l33.46338,0z" stroke-opacity="0" stroke-linecap="null" stroke-linejoin="null" stroke-dasharray="null" stroke-width="null" fill="#f7f7f7"/>
  <line stroke="#fcf9f9" id="svg_58" y2="122.18924" x2="357.19657" y1="151.12063" x1="374.59372" stroke-linecap="null" stroke-linejoin="null" stroke-dasharray="null" stroke-width="null" fill="none"/>
  <line stroke="#fcf9f9" id="svg_59" y2="122.91252" x2="357.19657" y1="151.12063" x1="342.08101" stroke-linecap="null" stroke-linejoin="null" stroke-dasharray="null" stroke-width="null" fill="none"/>
  <path stroke="#000000" id="svg_61" d="m303.07276,166.58187l0,8.78657l0,0c0,4.8527 -7.49103,8.78657 -16.73169,8.78657c-9.24065,0 -16.73169,-3.93388 -16.73169,-8.78657l0,-8.78657l33.46338,0z" stroke-opacity="0" stroke-linecap="null" stroke-linejoin="null" stroke-dasharray="null" stroke-width="null" fill="#f7f7f7"/>
  <line stroke="#fcf9f9" id="svg_62" y2="137.54763" x2="284.86308" y1="166.47901" x1="302.26024" stroke-linecap="null" stroke-linejoin="null" stroke-dasharray="null" stroke-width="null" fill="none"/>
  <line stroke="#fcf9f9" id="svg_63" y2="138.27091" x2="284.86308" y1="166.47901" x1="269.74752" stroke-linecap="null" stroke-linejoin="null" stroke-dasharray="null" stroke-width="null" fill="none"/>
  <rect stroke="#000000" stroke-opacity="0" id="svg_65" height="70.875" width="5.48437" y="127.64059" x="319.48441" stroke-linecap="null" stroke-linejoin="null" stroke-dasharray="null" stroke-width="0" fill="#f7f7f7"/>
  <rect id="svg_69" height="6.75" width="37.125" y="195.14059" x="303.03128" stroke-opacity="0" stroke-linecap="null" stroke-linejoin="null" stroke-dasharray="null" stroke-width="0" stroke="#000000" fill="#f7f7f7"/>
  </g>
  <g id="svg_24" stroke="null">
   <path fill="#000000" stroke-width="5" stroke-dasharray="null" stroke-linejoin="null" stroke-linecap="null" fill-opacity="0" d="m313.15789,174.43496l-18.86316,0l-28.29474,34.77895l112,0l-22.98947,-34.77895l-18.27368,-0.58947" id="svg_7" stroke="#fcf9f9"/>
   <path fill="#000000" stroke-width="5" stroke-dasharray="null" stroke-linejoin="null" stroke-linecap="null" fill-opacity="0" d="m324.30931,131.03113c-8.78976,0 -15.91579,7.12603 -15.91579,15.91579c0,8.79188 15.91579,38.45468 15.91579,38.45468s15.91579,-29.66279 15.91579,-38.45468c0,-8.78976 -7.12391,-15.91579 -15.91579,-15.91579zm0,23.52142c-4.19965,0 -7.60563,-3.40386 -7.60563,-7.60563s3.40598,-7.60563 7.60563,-7.60563s7.60563,3.40598 7.60563,7.60563s-3.40598,7.60563 -7.60563,7.60563z" id="svg_9" stroke="#fcf9f9"/>
  </g>
 </g>
</svg>
