<svg width="400" height="265" xmlns="http://www.w3.org/2000/svg" xmlns:svg="http://www.w3.org/2000/svg">
 <!-- Created with SVG-edit - http://svg-edit.googlecode.com/ -->
 <g class="layer">
  <title>Layer 1</title>
  <rect fill="#9516bc" height="264.00001" id="svg_1" stroke="#000000" stroke-opacity="0" stroke-width="5" width="401.00001" x="0" y="1"/>
  <rect fill="#9a98e0" fill-opacity="0.5" height="161" id="svg_15" stroke="#000000" stroke-dasharray="null" stroke-linecap="null" stroke-linejoin="null" stroke-opacity="0" stroke-width="5" width="203" x="0.00001" y="107"/>
  <path d="m-49.18679,154.10052l0,-99.47268l99.37307,99.47268l-99.37307,0z" fill="#d098e2" id="svg_34" stroke="#000000" stroke-dasharray="null" stroke-linecap="null" stroke-linejoin="null" stroke-opacity="0" stroke-width="5" transform="rotate(-134.897 0.499732 104.364)"/>
  <path d="m48.49976,169.63529l0,-127l126.99999,127l-126.99999,0z" fill="#570472" id="svg_28" stroke="#000000" stroke-dasharray="null" stroke-linecap="null" stroke-linejoin="null" stroke-opacity="0" stroke-width="5" transform="rotate(134.78 112 106.135)"/>
  <path d="m49.49978,171.36419l0,-127l126.99999,127l-126.99999,0z" fill="#d098e2" id="svg_29" stroke="#000000" stroke-dasharray="null" stroke-linecap="null" stroke-linejoin="null" stroke-opacity="0" stroke-width="5" transform="rotate(-134.897 113 107.864)"/>
  <path d="m138.00002,168.5l0,-127l126.99999,127l-126.99999,0z" fill="#570472" id="svg_26" stroke="#000000" stroke-dasharray="null" stroke-linecap="null" stroke-linejoin="null" stroke-opacity="0" stroke-width="5" transform="rotate(134.78 201.5 105)"/>
  <path d="m138.00004,170.2289l0,-127l126.99999,127l-126.99999,0z" fill="#cf65f2" id="svg_27" stroke="#000000" stroke-dasharray="null" stroke-linecap="null" stroke-linejoin="null" stroke-opacity="0" stroke-width="5" transform="rotate(-134.897 201.5 106.729)"/>
  <path d="m225.99976,168.63529l0,-127l126.99999,127l-126.99999,0z" fill="#570472" id="svg_31" stroke="#000000" stroke-dasharray="null" stroke-linecap="null" stroke-linejoin="null" stroke-opacity="0" stroke-width="5" transform="rotate(134.78 289.5 105.135)"/>
  <path d="m137.99976,328.6353l0,-127l126.99999,127l-126.99999,0z" fill="#570472" id="svg_35" stroke="#000000" stroke-dasharray="null" stroke-linecap="null" stroke-linejoin="null" stroke-opacity="0" stroke-width="5" transform="rotate(134.78 201.5 265.135)"/>
  <path d="m225.99978,170.36419l0,-127l126.99999,127l-126.99999,0z" fill="#d098e2" id="svg_30" stroke="#000000" stroke-dasharray="null" stroke-linecap="null" stroke-linejoin="null" stroke-opacity="0" stroke-width="5" transform="rotate(-134.897 289.5 106.864)"/>
  <rect fill="#2c2aa8" fill-opacity="0.7" height="160.00001" id="svg_33" stroke="#000000" stroke-dasharray="null" stroke-linecap="null" stroke-linejoin="null" stroke-opacity="0" stroke-width="5" width="113.00001" x="288" y="104"/>
  <rect fill="#000000" fill-opacity="0" height="132" id="svg_39" stroke="#fcf9f9" stroke-dasharray="null" stroke-linecap="null" stroke-linejoin="null" stroke-width="7" width="132" x="135.48438" y="38.92188"/>
  <rect fill="#000000" height="0" id="svg_46" stroke="#f9f9f9" stroke-dasharray="null" stroke-linecap="null" stroke-linejoin="null" stroke-width="7" width="1" x="44" y="210"/>
  <g id="svg_71">
   <rect fill="#f7f7f7" height="6.3125" id="svg_48" stroke="#000000" stroke-dasharray="null" stroke-linecap="null" stroke-linejoin="null" stroke-opacity="0" transform="matrix(0.758157 -0.173266 0.180516 0.727706 45.4195 90.2043)" width="99.9375" x="150.772971" y="18.966617"/>
   <path d="m255.40625,94.22348l0,8.78657l0,0c0,4.85269 -7.49103,8.78657 -16.73169,8.78657c-9.24065,0 -16.73169,-3.93388 -16.73169,-8.78657l0,-8.78657l33.46338,0z" fill="#f7f7f7" id="svg_57" stroke="#000000" stroke-dasharray="null" stroke-linecap="null" stroke-linejoin="null" stroke-opacity="0" stroke-width="null"/>
   <line fill="none" id="svg_58" stroke="#fcf9f9" stroke-dasharray="null" stroke-linecap="null" stroke-linejoin="null" stroke-width="null" x1="254.59372" x2="237.19657" y1="94.12063" y2="65.18924"/>
   <line fill="none" id="svg_59" stroke="#fcf9f9" stroke-dasharray="null" stroke-linecap="null" stroke-linejoin="null" stroke-width="null" x1="222.08101" x2="237.19657" y1="94.12063" y2="65.91252"/>
   <path d="m183.07276,109.58187l0,8.78657l0,0c0,4.8527 -7.49103,8.78657 -16.73169,8.78657c-9.24065,0 -16.73169,-3.93388 -16.73169,-8.78657l0,-8.78657l33.46338,0z" fill="#f7f7f7" id="svg_61" stroke="#000000" stroke-dasharray="null" stroke-linecap="null" stroke-linejoin="null" stroke-opacity="0" stroke-width="null"/>
   <line fill="none" id="svg_62" stroke="#fcf9f9" stroke-dasharray="null" stroke-linecap="null" stroke-linejoin="null" stroke-width="null" x1="182.26024" x2="164.86308" y1="109.47901" y2="80.54763"/>
   <line fill="none" id="svg_63" stroke="#fcf9f9" stroke-dasharray="null" stroke-linecap="null" stroke-linejoin="null" stroke-width="null" x1="149.74752" x2="164.86308" y1="109.47901" y2="81.27091"/>
   <rect fill="#f7f7f7" height="70.875" id="svg_65" stroke="#000000" stroke-dasharray="null" stroke-linecap="null" stroke-linejoin="null" stroke-opacity="0" stroke-width="0" width="5.48437" x="199.48441" y="70.64059"/>
   <rect fill="#f7f7f7" height="6.75" id="svg_69" stroke="#000000" stroke-dasharray="null" stroke-linecap="null" stroke-linejoin="null" stroke-opacity="0" stroke-width="0" width="37.125" x="183.03128" y="138.14059"/>
  </g>
  <text fill="#f9f4f4" font-family="Monospace" font-size="24" id="svg_72" stroke="#000000" stroke-dasharray="null" stroke-linecap="null" stroke-linejoin="null" stroke-opacity="0" stroke-width="0" text-anchor="middle" x="200.18753" xml:space="preserve" y="205.07809">Access2justice</text>
  <g id="svg_73">
   <rect fill="#ffff00" height="65.86799" id="svg_16" stroke="#020000" stroke-dasharray="null" stroke-linecap="null" stroke-linejoin="null" stroke-width="4" transform="rotate(90 39.589 25.25)" width="27.32233" x="25.92786" y="-7.68399"/>
   <text fill="#000000" font-family="Monospace" font-size="24" font-weight="bold" id="svg_36" stroke="#020000" stroke-dasharray="null" stroke-linecap="null" stroke-linejoin="null" stroke-width="0" text-anchor="middle" transform="matrix(0.482421 0 0 0.585276 -60.8146 83.9385)" x="207.066362" xml:space="preserve" y="-90.85418">&lt; PDX /&gt;</text>
  </g>
 </g>
</svg>
