<svg width="640" height="480" xmlns="http://www.w3.org/2000/svg" xmlns:svg="http://www.w3.org/2000/svg">
<!-- Created with SVG-edit - http://svg-edit.googlecode.com/ -->
<g>
<title>Layer 1</title>
<rect id="svg_1" height="264.00001" width="401.00001" y="58" x="120" stroke-width="5" fill="#269b0f" stroke-opacity="0" stroke="#000000"/>
<rect stroke="#000000" fill="#40a529" stroke-width="5" stroke-dasharray="null" stroke-linejoin="null" stroke-linecap="null" stroke-opacity="0" x="344" y="142.93145" width="171.00001" height="173.06856" fill-opacity="0.7" id="svg_33"/>
<rect fill="#000000" stroke="#f9f9f9" stroke-width="7" stroke-dasharray="null" stroke-linejoin="null" stroke-linecap="null" x="45" y="210" width="1" height="0" id="svg_46"/>
<polygon strokeWidth="5" strokecolor="#000000" fill="#2b4f07" edge="0" orient="x" sides="6" shape="regularPoly" id="svg_2" cy="357" cx="146"/>
<polygon stroke="#000000" stroke-linejoin="null" stroke-linecap="null" stroke-dasharray="null" transform="rotate(90 427.8134460449219,144.00000000000006) " stroke-opacity="0" fill-opacity="0.3" stroke-width="5" points="508.9540100097656,143.99998474121094 468.3837585449219,214.2698211669922 387.2431640625,214.2698211669922 346.6728820800781,143.99998474121094 387.2431640625,73.73017883300781 468.3837585449219,73.73017883300781 508.9540100097656,143.99998474121094 " strokeWidth="5" strokecolor="none" fill="#06c947" edge="60.14058" orient="x" sides="6" shape="regularPoly" id="svg_3" cy="90" cx="17"/>
<polygon stroke-linejoin="null" stroke-linecap="null" stroke-dasharray="null" id="svg_5" transform="rotate(90 300.00000000000006,125.00000762939456) " stroke-opacity="0" stroke="#000000" fill-opacity="0.6" stroke-width="5" points="360.14056396484375,125 330.0703125,177.08328247070312 269.9297180175781,177.08328247070312 239.85943603515625,125 269.9297180175781,72.91673278808594 330.0703125,72.91673278808594 360.14056396484375,125 " strokeWidth="5" strokecolor="none" fill="#06c947" edge="60.14058" orient="x" sides="6" shape="regularPoly" cy="90" cx="17"/>
<polygon id="svg_4" transform="rotate(90 231.6313934326172,205.00000000000003) " fill-opacity="0.4" stroke-width="5" points="346.7719421386719,205 289.2017517089844,304.71466064453125 174.06112670898438,304.71466064453125 116.49083709716797,205 174.06112670898438,105.28530883789062 289.2017517089844,105.28530883789062 346.7719421386719,205 " strokeWidth="5" strokecolor="none" fill="#2b4f07" edge="60.14058" orient="x" sides="6" shape="regularPoly" cy="90" cx="17"/>
<polygon id="svg_6" stroke-linejoin="null" stroke-linecap="null" stroke-dasharray="null" transform="rotate(90 367.00000000000006,229.00000000000003) " stroke-opacity="0" stroke="#000000" stroke-width="5" points="427.14056396484375,229 397.0703125,281.0832824707031 336.9297180175781,281.0832824707031 306.85943603515625,229 336.9297180175781,176.91673278808594 397.0703125,176.91673278808594 427.14056396484375,229 " strokeWidth="5" strokecolor="none" fill="#06c947" edge="60.14058" orient="x" sides="6" shape="regularPoly" cy="90" cx="17"/>
<g id="svg_73">
 <rect fill="#ffff00" stroke-width="4" stroke-dasharray="null" stroke-linejoin="null" stroke-linecap="null" x="145.92786" y="49.31601" width="27.32233" height="65.86799" id="svg_16" transform="rotate(90 159.58901977539065,82.25000000000001) " stroke="#020000"/>
 <text fill="#000000" stroke-width="0" stroke-dasharray="null" stroke-linejoin="null" stroke-linecap="null" x="209.13924" y="-90.85418" id="svg_36" font-size="24" font-family="Monospace" text-anchor="middle" xml:space="preserve" font-weight="bold" transform="matrix(0.4824212431870472,0,0,0.5852756734556622,58.185394532319464,140.9385066692514) " stroke="#020000">&lt; PDX /&gt;</text>
</g>
<rect fill="#000000" stroke-width="7" stroke-dasharray="null" stroke-linejoin="null" stroke-linecap="null" x="256.48438" y="102.92188" width="132" height="132" id="svg_39" fill-opacity="0" stroke="#fcf9f9"/>
<text fill="#f9f4f4" stroke="#000000" stroke-width="0" stroke-dasharray="null" stroke-linejoin="null" stroke-linecap="null" stroke-opacity="0" x="320.18753" y="278.07809" id="svg_72" font-size="24" font-family="Monospace" text-anchor="middle" xml:space="preserve">Symptom Surveyor</text>
<path stroke="#000000" id="svg_10" d="m370.53117,204.99136l-24.94422,-24.94422c3.36043,-5.54121 5.33119,-12.02405 5.33469,-18.97595c-0.0035,-20.27812 -16.42412,-36.70223 -36.69173,-36.70923c-20.27111,0.007 -36.69873,16.43112 -36.69873,36.70573c0,20.26411 16.42762,36.68823 36.69873,36.68823c6.9554,0 13.43823,-1.97075 18.97945,-5.33119l24.95122,24.94772l12.3706,-12.3811zm-79.00169,-43.92366c0.021,-12.53862 10.16181,-22.67592 22.69693,-22.70393c12.52812,0.028 22.67592,10.16531 22.69693,22.70393c-0.0245,12.53162 -10.16881,22.66892 -22.69693,22.69693c-12.53512,-0.028 -22.67592,-10.16531 -22.69693,-22.69693z" stroke-opacity="0" stroke-linecap="null" stroke-linejoin="null" stroke-dasharray="null" stroke-width="5" fill="#f7f9f8"/>
</g>
</svg>
