
<svg width="640" height="480" xmlns="http://www.w3.org/2000/svg" xmlns:svg="http://www.w3.org/2000/svg">
 <!-- Created with SVG-edit - http://svg-edit.googlecode.com/ -->
 <g stroke="null">
  <title>Layer 1</title>
  <rect id="svg_1" height="264.00001" width="401.00001" y="58" x="120" stroke-width="5" fill="#e2841f" stroke-opacity="0" stroke="#000000"/>
  <path fill="#f7db04" stroke-width="5" stroke-dasharray="null" stroke-linejoin="null" stroke-linecap="null" stroke-opacity="0" d="m442.865,321.33835l16.8,-266.00001l67.2,0l-16.8,266.00001l-67.2,0z" id="svg_12" fill-opacity="0.4" stroke="#000000"/>
  <rect fill="#000000" stroke-width="7" stroke-dasharray="null" stroke-linejoin="null" stroke-linecap="null" x="45" y="210" width="1" height="0" id="svg_46" stroke="#f9f9f9"/>
  <polygon fill="#2b4f07" id="svg_2" stroke="null"/>
  <path fill="#f7db04" stroke-width="5" stroke-dasharray="null" stroke-linejoin="null" stroke-linecap="null" stroke-opacity="0" d="m210.53104,189.92873l1.40404,-1.40404l1.40427,1.40404l-1.40427,1.40404l-1.40404,-1.40404zm-1.58103,1.59017l1.40427,-1.40404l1.40404,1.40404l-1.40404,1.40427l-1.40427,-1.40427zm3.19192,0.02868l1.40427,-1.40381l1.40381,1.40381l-1.40381,1.40427l-1.40427,-1.40427zm-1.58057,1.5904l1.40381,-1.40404l1.40428,1.40404l-1.40428,1.40405l-1.40381,-1.40405z" id="svg_6" stroke="#000000"/>
  <path fill="#f7db04" stroke-width="5" stroke-dasharray="null" stroke-linejoin="null" stroke-linecap="null" stroke-opacity="0" d="m155.865,321.5786l29.2,-263.24023l116.79999,0l-29.2,263.24023l-116.79999,0z" fill-opacity="0.8" id="svg_14" stroke="#000000"/>
  <path fill="#f7db04" stroke-width="5" stroke-dasharray="null" stroke-linejoin="null" stroke-linecap="null" stroke-opacity="0" d="m225.86501,321.33835l22.2,-266l88.79999,0l-22.2,266l-88.79999,0z" fill-opacity="0.4" id="svg_15" stroke="#000000"/>
  <path fill="#f7db04" stroke-width="5" stroke-dasharray="null" stroke-linejoin="null" stroke-linecap="null" stroke-opacity="0" d="m308.86501,321.33835l22.2,-266l88.79999,0l-22.2,266l-88.79999,0z" fill-opacity="0.4" id="svg_17" stroke="#000000"/>
  <path fill="#f7db04" stroke-width="5" stroke-dasharray="null" stroke-linejoin="null" stroke-linecap="null" stroke-opacity="0" d="m476.86502,322.33835l10,-266l39.99998,0l-10,266l-39.99998,0z" fill-opacity="0.4" id="svg_18" stroke="#000000"/>
  <text fill="#f9f4f4" stroke-width="0" stroke-dasharray="null" stroke-linejoin="null" stroke-linecap="null" stroke-opacity="0" x="320.18753" y="278.07809" id="svg_72" font-size="24" font-family="Monospace" text-anchor="middle" xml:space="preserve" stroke="#000000">County Health Map</text>
  <rect fill="#000000" stroke-width="7" stroke-dasharray="null" stroke-linejoin="null" stroke-linecap="null" x="256.48438" y="102.92188" width="132" height="132" id="svg_39" fill-opacity="0" stroke="#fcf9f9"/>
  <g id="svg_73" stroke="null">
   <rect fill="#566aff" stroke-width="4" stroke-dasharray="null" stroke-linejoin="null" stroke-linecap="null" x="148.92786" y="51.31601" width="27.32233" height="65.86799" id="svg_16" transform="rotate(90 162.58901977539065,84.25000000000001) " stroke="#020000"/>
   <text fill="#000000" stroke-width="0" stroke-dasharray="null" stroke-linejoin="null" stroke-linecap="null" x="215.35787" y="-87.43699" id="svg_36" font-size="24" font-family="Monospace" text-anchor="middle" xml:space="preserve" font-weight="bold" stroke="#020000" transform="matrix(0.4824212431870472,0,0,0.5852756734556622,58.185394532319464,140.9385066692514) ">&lt; PDX /&gt;</text>
  </g>
  <g id="svg_24" stroke="null">
   <path fill="#000000" stroke-width="5" stroke-dasharray="null" stroke-linejoin="null" stroke-linecap="null" fill-opacity="0" d="m313.15789,174.43496l-18.86316,0l-28.29474,34.77895l112,0l-22.98947,-34.77895l-18.27368,-0.58947" id="svg_7" stroke="#fcf9f9"/>
   <path fill="#000000" stroke-width="5" stroke-dasharray="null" stroke-linejoin="null" stroke-linecap="null" fill-opacity="0" d="m324.30931,131.03113c-8.78976,0 -15.91579,7.12603 -15.91579,15.91579c0,8.79188 15.91579,38.45468 15.91579,38.45468s15.91579,-29.66279 15.91579,-38.45468c0,-8.78976 -7.12391,-15.91579 -15.91579,-15.91579zm0,23.52142c-4.19965,0 -7.60563,-3.40386 -7.60563,-7.60563s3.40598,-7.60563 7.60563,-7.60563s7.60563,3.40598 7.60563,7.60563s-3.40598,7.60563 -7.60563,7.60563z" id="svg_9" stroke="#fcf9f9"/>
  </g>
 </g>
</svg>
